<?xml version="1.0" encoding="utf-8"?>
<!-- Generator: Adobe Illustrator 21.0.0, SVG Export Plug-In . SVG Version: 6.00 Build 0)  -->
<svg version="1.1" id="Camada_1" xmlns="http://www.w3.org/2000/svg" xmlns:xlink="http://www.w3.org/1999/xlink" x="0px" y="0px"
	 viewBox="0 0 128 128" style="enable-background:new 0 0 128 128;" xml:space="preserve">
<style type="text/css">
	.st0{fill:#FFFFFF;}
	.st1{fill:#C84D42;}
</style>
<g>
	<circle class="st0" cx="64" cy="64" r="59.5"/>
</g>
<g>
	<path class="st1" d="M41,71.6H27.3V54.1h5.7v13.4H41V71.6z"/>
	<path class="st1" d="M51.8,53.7c3,0,5.3,0.9,6.9,2.8c1.5,1.7,2.3,3.8,2.3,6.3c0,2.9-0.9,5.2-2.7,6.9c-1.7,1.6-3.9,2.4-6.5,2.4
		c-2.8,0-5-0.8-6.6-2.5c-1.7-1.7-2.5-4-2.5-6.9c0-2.7,0.8-4.9,2.5-6.6C46.9,54.5,49.1,53.7,51.8,53.7z M51.8,57.9
		c-1.2,0-2.1,0.6-2.7,1.6c-0.5,0.8-0.7,1.9-0.7,3.2c0,1.4,0.2,2.5,0.7,3.4c0.6,1.1,1.5,1.7,2.7,1.7c2.3,0,3.5-1.7,3.5-5
		c0-1.3-0.3-2.5-0.8-3.3C53.9,58.4,53,57.9,51.8,57.9z"/>
	<path class="st1" d="M80.6,62v9.7h-3.7L76.7,70c-1.2,1.4-3,2.1-5.3,2.1c-2.4,0-4.4-0.7-5.9-2.2C63.8,68.3,63,66,63,63.1
		c0-2.8,0.8-5.1,2.5-6.8c1.7-1.7,3.9-2.6,6.7-2.6c2.2,0,4,0.5,5.5,1.6c1.5,1.2,2.5,2.8,2.8,4.9H75c-0.4-1.5-1.4-2.2-2.9-2.2
		c-1.1,0-1.9,0.5-2.5,1.4s-0.8,2.2-0.8,3.8c0,3.2,1.2,4.7,3.7,4.7c0.6,0,1.2-0.2,1.8-0.6c0.6-0.4,1-0.9,1.1-1.4h-2.5V62H80.6z"/>
	<path class="st1" d="M92.4,53.7c3,0,5.3,0.9,6.9,2.8c1.5,1.7,2.3,3.8,2.3,6.3c0,2.9-0.9,5.2-2.7,6.9c-1.7,1.6-3.9,2.4-6.5,2.4
		c-2.8,0-5-0.8-6.6-2.5c-1.7-1.7-2.5-4-2.5-6.9c0-2.7,0.8-4.9,2.5-6.6C87.4,54.5,89.6,53.7,92.4,53.7z M92.3,57.9
		c-1.2,0-2.1,0.6-2.7,1.6c-0.5,0.8-0.7,1.9-0.7,3.2c0,1.4,0.2,2.5,0.7,3.4c0.6,1.1,1.5,1.7,2.7,1.7c2.3,0,3.5-1.7,3.5-5
		c0-1.3-0.3-2.5-0.8-3.3C94.4,58.4,93.5,57.9,92.3,57.9z"/>
</g>
</svg>
