<?xml version="1.0" encoding="UTF-8"?>
<!DOCTYPE svg PUBLIC "-//W3C//DTD SVG 1.1//EN" "http://www.w3.org/Graphics/SVG/1.1/DTD/svg11.dtd">
<!-- Creator: CorelDRAW X7 -->
<svg xmlns="http://www.w3.org/2000/svg" xml:space="preserve" width="100%" height="100%" version="1.1" style="shape-rendering:geometricPrecision; text-rendering:geometricPrecision; image-rendering:optimizeQuality; fill-rule:evenodd; clip-rule:evenodd"
viewBox="0 0 6385 6385"
 xmlns:xlink="http://www.w3.org/1999/xlink">
 <defs>
  <style type="text/css">
   <![CDATA[
    .fil1 {fill:#FEFEFE}
    .fil0 {fill:#0A86D1}
   ]]>
  </style>
 </defs>
 <g id="Camada_x0020_1">
  <metadata id="CorelCorpID_0Corel-Layer"/>
  <rect class="fil0" width="6385" height="6385"/>
  <path class="fil1" d="M4605 1125c-41,7 -83,4 -124,11 -469,74 -867,282 -1184,638 -290,325 -452,709 -490,1143 -9,113 -3,113 116,128 163,-40 333,-65 489,-124 780,-296 1207,-871 1305,-1696 13,-104 -5,-116 -112,-100z"/>
  <path class="fil1" d="M4184 3917c-344,-360 -769,-559 -1231,-604 -150,-3 -151,-3 -147,109 2,42 10,83 16,124 83,548 351,985 797,1311 292,215 623,327 983,361 108,10 126,3 115,-102 -46,-458 -212,-864 -533,-1199z"/>
  <path class="fil1" d="M2410 1115c-157,-1 -315,-1 -473,1 -166,2 -257,96 -257,263 0,613 0,1226 0,1839 0,623 0,1245 0,1867 0,109 14,124 124,124 160,1 321,1 482,0 168,-1 253,-85 253,-253 0,-1235 0,-2472 0,-3707 0,-108 -23,-133 -129,-134z"/>
  <g id="_2894938389920">
  </g>
  <g id="_2894938390208">
  </g>
  <g id="_2894938388992">
  </g>
  <g id="_2894938390592">
  </g>
  <g id="_2894938389856">
  </g>
  <g id="_2894938389824">
  </g>
  <g id="_2894938392192">
  </g>
  <g id="_2894938391072">
  </g>
  <g id="_2894938391904">
  </g>
  <g id="_2894938391136">
  </g>
  <g id="_2894938392704">
  </g>
  <g id="_2894938392896">
  </g>
  <g id="_2894938394144">
  </g>
  <g id="_2894938394336">
  </g>
  <g id="_2894938393248">
  </g>
 </g>
</svg>
