<?xml version="1.0" encoding="utf-8"?>
<!-- Generator: Adobe Illustrator 20.1.0, SVG Export Plug-In . SVG Version: 6.00 Build 0)  -->
<svg version="1.1" id="Camada_1" xmlns="http://www.w3.org/2000/svg" xmlns:xlink="http://www.w3.org/1999/xlink" x="0px" y="0px"
	 viewBox="0 0 250 250" style="enable-background:new 0 0 250 250;" xml:space="preserve">
<style type="text/css">
	.Sombra{fill:none;}
	.Cantos_x0020_arredondados_x0020__x002D__x0020_2_x0020_pontos{fill:#FFFFFF;stroke:#231F20;stroke-miterlimit:10;}
	.Reflexo_x0020_X_x0020_em_x0020_tempo_x0020_real{fill:none;}
	.Chanfro_x0020_suave{fill:url(#SVGID_1_);}
	.Anoitecer{fill:#FFFFFF;}
	.Foliage_GS{fill:#FFDD00;}
	.Pompadour_GS{fill-rule:evenodd;clip-rule:evenodd;fill:#44ADE2;}
	.st0{fill:#FFFFFF;}
</style>
<linearGradient id="SVGID_1_" gradientUnits="userSpaceOnUse" x1="0" y1="0" x2="0.7071" y2="0.7071">
	<stop  offset="0" style="stop-color:#DEDFE3"/>
	<stop  offset="0.1783" style="stop-color:#DADBDF"/>
	<stop  offset="0.3611" style="stop-color:#CECFD3"/>
	<stop  offset="0.546" style="stop-color:#B9BCBF"/>
	<stop  offset="0.7324" style="stop-color:#9CA0A2"/>
	<stop  offset="0.9181" style="stop-color:#787D7E"/>
	<stop  offset="1" style="stop-color:#656B6C"/>
</linearGradient>
<path class="st0" d="M220.1,239l-8.8-169.6c-0.2-4.7-4.1-8.4-8.9-8.4h-25.9v-8.3c0-28.4-23.1-51.5-51.5-51.5
	c-28.4,0-51.5,23.1-51.5,51.5V61H47.6c-4.7,0-8.6,3.7-8.9,8.4l-8.8,170.1c-0.1,2.4,0.8,4.8,2.4,6.6c1.7,1.8,4,2.8,6.4,2.8h172.4h0
	c4.9,0,8.9-4,8.9-8.9C220.1,239.6,220.1,239.3,220.1,239L220.1,239z M86.1,99.9c-6.9,0-12.4-5.6-12.4-12.4c0-6.9,5.6-12.4,12.4-12.4
	c6.9,0,12.4,5.6,12.4,12.4C98.6,94.3,93,99.9,86.1,99.9L86.1,99.9z M159.6,61H90.4V49.5c0-19.1,15.5-34.6,34.6-34.6
	c19.1,0,34.6,15.5,34.6,34.6V61z M163.9,99.9c-6.9,0-12.4-5.6-12.4-12.4c0-6.9,5.6-12.4,12.4-12.4c6.9,0,12.4,5.6,12.4,12.4
	C176.3,94.3,170.7,99.9,163.9,99.9L163.9,99.9z M163.9,96.9"/>
</svg>
