<?xml version="1.0" encoding="utf-8"?>
<!-- Generator: Adobe Illustrator 20.1.0, SVG Export Plug-In . SVG Version: 6.00 Build 0)  -->
<svg version="1.1" id="Camada_1" xmlns="http://www.w3.org/2000/svg" xmlns:xlink="http://www.w3.org/1999/xlink" x="0px" y="0px"
	 viewBox="0 0 200 80" style="enable-background:new 0 0 200 80;" xml:space="preserve">
<style type="text/css">
	.Sombra{fill:none;}
	.Cantos_x0020_arredondados_x0020__x002D__x0020_2_x0020_pontos{fill:#FFFFFF;stroke:#231F20;stroke-miterlimit:10;}
	.Reflexo_x0020_X_x0020_em_x0020_tempo_x0020_real{fill:none;}
	.Chanfro_x0020_suave{fill:url(#SVGID_1_);}
	.Anoitecer{fill:#FFFFFF;}
	.Foliage_GS{fill:#FFDD00;}
	.Pompadour_GS{fill-rule:evenodd;clip-rule:evenodd;fill:#44ADE2;}
	.st0{fill:#FFFFFF;}
</style>
<linearGradient id="SVGID_1_" gradientUnits="userSpaceOnUse" x1="0" y1="0" x2="0.7071" y2="0.7071">
	<stop  offset="0" style="stop-color:#DEDFE3"/>
	<stop  offset="0.1783" style="stop-color:#DADBDF"/>
	<stop  offset="0.3611" style="stop-color:#CECFD3"/>
	<stop  offset="0.546" style="stop-color:#B9BCBF"/>
	<stop  offset="0.7324" style="stop-color:#9CA0A2"/>
	<stop  offset="0.9181" style="stop-color:#787D7E"/>
	<stop  offset="1" style="stop-color:#656B6C"/>
</linearGradient>
<g>
	<g>
		<path class="st0" d="M39,20c-0.4-0.4-1-0.9-2-1.5c-1-0.6-2.2-1.2-3.5-1.8c-1.4-0.6-2.9-1.1-4.5-1.5c-1.6-0.4-3.3-0.6-5-0.6
			c-3,0-5.2,0.6-6.7,1.7c-1.5,1.1-2.2,2.6-2.2,4.6c0,1.2,0.3,2.1,0.8,2.9c0.6,0.8,1.4,1.4,2.4,2c1,0.6,2.4,1.1,4,1.6
			c1.6,0.5,3.4,1,5.5,1.5c2.7,0.7,5.2,1.5,7.4,2.4c2.2,0.8,4.1,1.9,5.7,3.1c1.5,1.3,2.7,2.8,3.6,4.5c0.8,1.8,1.3,3.9,1.3,6.5
			c0,3-0.6,5.5-1.7,7.7c-1.1,2.1-2.6,3.8-4.6,5.2c-1.9,1.3-4.1,2.3-6.6,2.9c-2.5,0.6-5.1,0.9-7.8,0.9c-4.2,0-8.3-0.6-12.4-1.9
			c-4.1-1.3-7.8-3-11-5.3l4.8-9.4c0.5,0.5,1.3,1.1,2.6,1.8c1.2,0.8,2.7,1.5,4.4,2.3c1.7,0.8,3.5,1.4,5.6,1.9c2,0.5,4.1,0.8,6.3,0.8
			c6,0,9-1.9,9-5.7c0-1.2-0.3-2.2-1-3.1c-0.7-0.8-1.7-1.6-2.9-2.2c-1.3-0.6-2.8-1.2-4.6-1.7c-1.8-0.5-3.8-1.1-6-1.7
			c-2.7-0.7-5-1.5-7-2.4c-2-0.9-3.6-1.9-4.9-3.1c-1.3-1.2-2.3-2.5-2.9-4.1c-0.7-1.5-1-3.4-1-5.5c0-2.8,0.5-5.3,1.6-7.5
			c1-2.2,2.5-4,4.4-5.5c1.9-1.5,4-2.6,6.5-3.3C18.8,5.4,21.5,5,24.3,5c3.9,0,7.6,0.6,10.9,1.8c3.3,1.2,6.2,2.7,8.7,4.4L39,20z"/>
		<path class="st0" d="M153.8,29.2c-3.2,0.1-6.1,0.7-8.6,1.8c-2.5,1.2-4.3,2.9-5.4,5.3v24.9h-10.5V20h9.7v8.8
			c0.7-1.4,1.6-2.7,2.6-3.8c1-1.1,2.1-2.1,3.2-3c1.2-0.8,2.3-1.5,3.5-1.9c1.2-0.4,2.3-0.7,3.4-0.7c0.6,0,1,0,1.3,0
			c0.3,0,0.6,0,0.8,0.1V29.2z"/>
		<path class="st0" d="M176.8,62c-3.3,0-6.3-0.6-9-1.7c-2.7-1.1-5-2.7-6.8-4.6c-1.9-1.9-3.3-4.2-4.4-6.8c-1-2.6-1.5-5.3-1.5-8.1
			c0-2.9,0.5-5.7,1.5-8.3c1-2.6,2.4-4.9,4.3-6.8c1.9-2,4.2-3.5,6.9-4.7c2.7-1.2,5.7-1.7,9.1-1.7c3.4,0,6.4,0.6,9,1.7
			c2.6,1.2,4.9,2.7,6.8,4.6c1.9,1.9,3.3,4.2,4.2,6.8c1,2.6,1.5,5.2,1.5,8c0,0.7,0,1.3,0,2c0,0.6-0.1,1.2-0.2,1.6h-31.9
			c0.2,1.6,0.6,3.1,1.2,4.3c0.6,1.3,1.4,2.3,2.4,3.2c1,0.9,2.1,1.6,3.4,2c1.3,0.5,2.6,0.7,3.9,0.7c2.1,0,4.1-0.5,5.9-1.5
			c1.9-1,3.1-2.4,3.8-4l9,2.5c-1.5,3.1-3.9,5.7-7.3,7.7C185.4,61,181.4,62,176.8,62z M187.5,37.2c-0.3-3.1-1.4-5.6-3.4-7.4
			c-2-1.9-4.5-2.8-7.4-2.8c-1.4,0-2.7,0.2-4,0.7c-1.2,0.5-2.3,1.2-3.3,2.1c-0.9,0.9-1.7,2-2.3,3.2c-0.6,1.3-1,2.6-1.1,4.2H187.5z"/>
		<circle class="st0" cx="87.2" cy="68.6" r="6.4"/>
		<circle class="st0" cx="114.4" cy="68.6" r="6.4"/>
		<path class="st0" d="M124,40.9v-7.8c0-7.3-5.9-13.1-13.1-13.1H65.4V6.7H54.8V20h-5.4v8.1h5.4v23.7c0,1.8,0.3,3.4,0.9,4.7
			c0.6,1.3,1.3,2.3,2.3,3.1c1,0.8,2.1,1.4,3.4,1.8c1.3,0.4,2.7,0.6,4.1,0.6c2.3,0,4.4-0.3,6.4-0.9c2-0.6,3.8-1.3,5.2-1.9L75,50.8
			c-0.6,0.3-1.5,0.6-2.5,0.9c-1,0.4-2.1,0.6-3.2,0.6c-1.1,0-2-0.3-2.8-0.9c-0.8-0.6-1.1-1.6-1.1-3.1V28.1H77c0,0,0.1,0,0.1,0.1
			c4.7,2.7,3.7,12.5,3.7,12.5l0,0c0,0.3,0,0.5,0,0.8c0,2.8,0.5,5.5,1.5,8.1c1,2.6,2.4,4.8,4.3,6.8c1.9,2,4.1,3.5,6.8,4.7
			c2.7,1.2,5.7,1.7,9,1.7s6.4-0.6,9-1.7c2.7-1.2,4.9-2.7,6.8-4.7c1.8-2,3.2-4.2,4.2-6.8c0.9-2.3,1.4-4.7,1.5-7.2h0v-0.4
			c0-0.2,0-0.3,0-0.5C124,41.3,124,41.1,124,40.9z M113.2,42.3L113.2,42.3c-0.2,1.4-0.4,2.8-0.8,4c-0.6,1.5-1.3,2.8-2.3,3.9
			c-1,1.1-2.1,2-3.4,2.6c-1.3,0.6-2.7,0.9-4.2,0.9c-1.5,0-2.9-0.3-4.2-0.9c-1.3-0.6-2.5-1.5-3.4-2.6c-1-1.1-1.7-2.4-2.3-3.9
			c-0.6-1.5-0.8-3.2-0.8-5c0-0.2,0-0.3,0-0.5c0,0,0-0.1,0-0.1V33c0-2.2,1.8-4,4-4h12.1c3,0,5.5,2.5,5.5,5.5V42.3z"/>
	</g>
</g>
</svg>
