<?xml version="1.0" encoding="utf-8"?>
<!-- Generator: Adobe Illustrator 19.0.0, SVG Export Plug-In . SVG Version: 6.00 Build 0)  -->
<svg version="1.1" id="Camada_1" xmlns="http://www.w3.org/2000/svg" xmlns:xlink="http://www.w3.org/1999/xlink" x="0px" y="0px"
	 viewBox="0 0 250 250" style="enable-background:new 0 0 250 250;" xml:space="preserve">
<style type="text/css">
	.st0{fill:#FFFFFF;}
</style>
<g id="XMLID_1_">
	<path id="XMLID_6_" class="st0" d="M113.2,196.6c-12.7,0-23,10.3-23,23c0,12.7,10.3,23,23,23c12.7,0,23-10.3,23-23
		C136.3,207,125.9,196.6,113.2,196.6z M113.2,227.3c-4.2,0-7.7-3.4-7.7-7.7c0-4.2,3.4-7.7,7.7-7.7c4.2,0,7.7,3.4,7.7,7.7
		C120.9,223.9,117.5,227.3,113.2,227.3z"/>
	<path id="XMLID_15_" class="st0" d="M200.2,196.6c-12.7,0-23,10.3-23,23c0,12.7,10.3,23,23,23c12.7,0,23-10.3,23-23
		C223.2,207,212.9,196.6,200.2,196.6z M200.2,227.3c-4.2,0-7.7-3.4-7.7-7.7c0-4.2,3.4-7.7,7.7-7.7c4.2,0,7.7,3.4,7.7,7.7
		C207.9,223.9,204.4,227.3,200.2,227.3z"/>
	<path id="XMLID_16_" class="st0" d="M225.8,150.6c3.8,0,7-2.7,7.6-6.4l13-78.1c0.7-4-2.4-7.6-6.4-7.6h-0.8h-7h-10.1
		c-4.1,0-7.4,3.3-7.4,7.4v1.2c0,4.1,3.3,7.4,7.4,7.4h7.3l-10.1,60.7c0,0,0,0,0,0H88.1c0,0,0,0,0,0L73.2,58.5l-3-15.3l-5.7-29.6
		c-0.7-3.6-3.9-6.2-7.5-6.2H9.5c-4.1,0-7.7,3.1-8,7.2c-0.3,4.5,3.3,8.1,7.7,8.1h41.4c0,0,0,0,0,0l5.8,29.6c0,0,0,0,0,0l8.9,46.2
		l14.8,76.6c0.7,3.6,3.8,6.2,7.5,6.2h138.1c4.4,0,7.9-3.7,7.7-8.1c-0.2-4.1-3.9-7.2-8-7.2H94c0,0,0,0,0,0l-3-15.3c0,0,0,0,0,0H225.8
		z"/>
</g>
</svg>
