<?xml version="1.0" encoding="utf-8"?>
<!-- Generator: Adobe Illustrator 20.1.0, SVG Export Plug-In . SVG Version: 6.00 Build 0)  -->
<svg version="1.1" id="Camada_1" xmlns="http://www.w3.org/2000/svg" xmlns:xlink="http://www.w3.org/1999/xlink" x="0px" y="0px"
	 viewBox="0 0 250 250" style="enable-background:new 0 0 250 250;" xml:space="preserve">
<style type="text/css">
	.Sombra{fill:none;}
	.Cantos_x0020_arredondados_x0020__x002D__x0020_2_x0020_pontos{fill:#FFFFFF;stroke:#231F20;stroke-miterlimit:10;}
	.Reflexo_x0020_X_x0020_em_x0020_tempo_x0020_real{fill:none;}
	.Chanfro_x0020_suave{fill:url(#SVGID_1_);}
	.Anoitecer{fill:#FFFFFF;}
	.Foliage_GS{fill:#FFDD00;}
	.Pompadour_GS{fill-rule:evenodd;clip-rule:evenodd;fill:#44ADE2;}
	.st0{fill:#FFFFFF;}
</style>
<linearGradient id="SVGID_1_" gradientUnits="userSpaceOnUse" x1="0" y1="0" x2="0.7071" y2="0.7071">
	<stop  offset="0" style="stop-color:#DEDFE3"/>
	<stop  offset="0.1783" style="stop-color:#DADBDF"/>
	<stop  offset="0.3611" style="stop-color:#CECFD3"/>
	<stop  offset="0.546" style="stop-color:#B9BCBF"/>
	<stop  offset="0.7324" style="stop-color:#9CA0A2"/>
	<stop  offset="0.9181" style="stop-color:#787D7E"/>
	<stop  offset="1" style="stop-color:#656B6C"/>
</linearGradient>
<path class="st0" d="M183.7,142.5c-2.7-5.7-6.6-10.6-11.6-14.7c-5-4.1-11.1-7.5-18.4-10.2c-7.2-2.7-15.3-5.3-24.1-7.6
	c-6.8-1.7-12.8-3.3-18-4.8c-5.2-1.5-9.5-3.2-12.9-5.1c-3.4-1.9-6-4-7.8-6.5c-1.8-2.5-2.7-5.6-2.7-9.3c0-6.5,2.4-11.5,7.1-15
	c4.8-3.6,12-5.4,21.7-5.4c5.4,0,10.8,0.7,16.1,2c5.3,1.4,10.2,3,14.7,5c4.5,2,8.3,4,11.5,6c3.1,2,5.3,3.7,6.5,4.8l15.6-28.6
	c-8-5.4-17.3-10.2-28-14.1c-6.4-2.4-13.1-4-20.1-5V3.6h-31.9v30.9c-3,0.6-6,1.3-8.9,2.2c-8,2.5-15,6.1-21,10.8
	c-6,4.8-10.8,10.7-14.1,17.8c-3.4,7.1-5.1,15.3-5.1,24.5c0,7,1.1,13,3.2,18c2.1,5,5.3,9.4,9.6,13.3c4.2,3.8,9.6,7.1,15.9,9.9
	c6.4,2.8,13.9,5.4,22.6,7.8c7.1,2,13.6,3.9,19.4,5.6c5.8,1.7,10.7,3.6,14.8,5.6c4.1,2,7.2,4.4,9.4,7.1c2.2,2.7,3.3,6,3.3,9.9
	c0,12.4-9.7,18.6-29.1,18.6c-7,0-13.8-0.8-20.4-2.5c-6.6-1.7-12.7-3.8-18.1-6.2c-5.4-2.5-10.2-4.9-14.1-7.4c-4-2.5-6.8-4.5-8.3-6
	l-15.6,30.3c10.5,7.5,22.4,13.3,35.7,17.3c6.9,2.1,13.9,3.7,20.9,4.7v30.2h31.9v-29.5c4.4-0.5,8.7-1.2,12.9-2.2
	c8.1-2,15.2-5.1,21.4-9.3c6.2-4.2,11.1-9.8,14.8-16.7c3.7-6.9,5.5-15.2,5.5-24.9C187.8,155.2,186.5,148.2,183.7,142.5z"/>
</svg>
